<?xml version="1.0" standalone="no"?>
<!DOCTYPE svg PUBLIC "-//W3C//DTD SVG 20010904//EN"
 "http://www.w3.org/TR/2001/REC-SVG-20010904/DTD/svg10.dtd">
<svg version="1.0" xmlns="http://www.w3.org/2000/svg"
 width="512.000000pt" height="512.000000pt" viewBox="0 0 512.000000 512.000000"
 preserveAspectRatio="xMidYMid meet">

<g transform="translate(0.000000,512.000000) scale(0.100000,-0.100000)"
fill="#FFCA54" stroke="none">
<path d="M2929 5091 l-29 -29 0 -141 0 -141 -644 0 c-354 0 -652 -3 -662 -7
-19 -7 -1118 -932 -1146 -965 -17 -19 -18 -76 -18 -889 l0 -869 -186 0 -186 0
-29 -29 c-34 -35 -37 -76 -15 -193 40 -204 145 -372 301 -483 54 -39 152 -90
208 -109 16 -5 14 -11 -17 -52 -58 -76 -78 -144 -74 -249 3 -78 7 -100 36
-157 18 -36 50 -82 72 -102 46 -41 1101 -574 1215 -613 177 -61 56 -57 1753
-60 l1553 -3 30 29 29 29 0 622 c0 426 -3 628 -11 642 -18 33 -70 48 -171 48
l-93 0 62 65 c106 111 178 256 203 408 18 109 14 145 -19 178 l-29 29 -186 0
-186 0 0 870 0 869 -33 33 c-19 18 -268 231 -555 473 l-522 440 0 168 c0 165
0 168 -25 192 l-24 25 -286 0 -287 0 -29 -29z m481 -396 l0 -255 -170 0 -170
0 0 255 0 255 170 0 170 0 0 -255z m-510 -220 c0 -141 10 -185 45 -199 9 -3
144 -6 299 -6 353 0 336 -7 336 136 0 52 3 94 8 94 5 0 751 -626 780 -655 3
-3 -357 -5 -800 -5 l-804 0 -440 371 c-241 204 -446 377 -454 385 -12 12 56
14 508 14 l522 0 0 -135z m-765 -328 l510 -432 3 -832 2 -833 -300 0 -300 0 0
561 c0 575 -1 587 -39 616 -12 9 -111 12 -388 13 l-372 0 -28 -24 -28 -24 -3
-571 -3 -571 -294 0 -295 0 0 833 0 834 508 431 c279 237 509 431 512 431 3 0
235 -194 515 -432z m2385 -1287 l0 -810 -850 0 -850 0 0 810 0 810 850 0 850
0 0 -810z m-2640 -300 l0 -510 -255 0 -255 0 0 510 0 510 255 0 255 0 0 -510z
m3060 -699 c0 -11 -11 -52 -25 -92 -47 -140 -161 -272 -294 -339 -106 -53
-155 -60 -429 -60 l-249 0 -74 34 c-192 88 -343 120 -559 120 -216 -1 -393
-40 -562 -125 l-57 -29 -1007 0 c-1104 0 -1061 -2 -1185 60 -133 67 -247 199
-294 339 -14 40 -25 81 -25 92 0 19 47 19 2380 19 2333 0 2380 0 2380 -19z
m-1425 -521 c86 -16 185 -46 260 -80 l65 -29 0 -531 0 -530 -894 0 c-963 0
-977 1 -1131 53 -38 13 -314 146 -612 296 -509 254 -545 274 -570 312 -39 58
-44 150 -13 214 33 69 86 100 169 100 65 0 75 -5 561 -230 l495 -230 445 -3
c488 -3 493 -2 516 54 15 37 11 58 -19 92 l-20 22 -361 0 c-386 0 -422 4 -469
48 -46 43 -60 78 -55 139 5 60 26 96 78 131 33 22 36 22 388 22 l355 0 107 49
c139 64 238 93 395 115 48 7 244 -2 310 -14z m-1787 -202 c-14 -39 -19 -70
-16 -125 2 -40 1 -73 -1 -73 -6 0 -534 241 -540 246 -2 2 126 4 286 4 l291 0
-20 -52z m3222 -458 l0 -510 -470 0 -470 0 0 510 0 510 470 0 470 0 0 -510z"/>
<path d="M3185 3215 l-25 -24 0 -289 c0 -270 1 -291 19 -313 l19 -24 449 -3
c246 -1 458 0 470 3 12 3 32 15 43 27 19 21 20 34 20 310 l0 289 -25 24 -24
25 -461 0 -461 0 -24 -25z m825 -315 l0 -170 -340 0 -340 0 0 170 0 170 340 0
340 0 0 -170z"/>
<path d="M4180 425 l0 -85 85 0 85 0 0 85 0 85 -85 0 -85 0 0 -85z"/>
</g>
</svg>
