<?xml version="1.0" standalone="no"?>
<!DOCTYPE svg PUBLIC "-//W3C//DTD SVG 20010904//EN"
 "http://www.w3.org/TR/2001/REC-SVG-20010904/DTD/svg10.dtd">
<svg version="1.0" xmlns="http://www.w3.org/2000/svg"
 width="512.000000pt" height="512.000000pt" viewBox="0 0 512.000000 512.000000"
 preserveAspectRatio="xMidYMid meet">

<g transform="translate(0.000000,512.000000) scale(0.100000,-0.100000)"
fill="#FFCA54" stroke="none">
<path d="M2855 4935 c-24 -23 -25 -29 -25 -160 l0 -135 -814 0 c-760 0 -815
-1 -834 -17 -12 -10 -246 -328 -522 -708 -380 -524 -500 -696 -500 -718 0 -16
10 -38 25 -52 24 -25 24 -25 234 -25 l209 0 6 -102 c3 -57 9 -442 13 -856 l8
-754 28 -24 28 -24 925 0 924 0 0 -135 c0 -131 1 -137 25 -160 l24 -25 416 0
415 0 0 -415 0 -416 25 -24 24 -25 271 0 271 0 24 25 25 24 0 416 0 415 415 0
416 0 24 25 25 24 0 591 0 591 -25 24 -24 25 -321 0 -320 0 0 400 0 400 100 0
c95 0 102 2 126 26 20 19 25 33 22 57 -5 38 -916 1410 -947 1426 -11 6 -40 11
-65 11 l-46 0 0 135 c0 131 -1 137 -25 160 l-24 25 -266 0 -266 0 -24 -25z
m445 -215 l0 -80 -155 0 -155 0 0 80 0 80 155 0 155 0 0 -80z m590 -840 l400
-600 -1057 0 -1058 1 -380 570 c-209 314 -388 584 -398 600 l-19 29 1056 0
1056 0 400 -600z m-2620 475 l43 -65 -314 -415 c-173 -228 -326 -434 -341
-457 -21 -31 -28 -55 -28 -90 l0 -48 -115 0 -116 0 23 33 c31 45 803 1107 804
1107 1 0 21 -29 44 -65z m470 -706 c178 -270 335 -499 348 -510 17 -13 41 -19
78 -19 l54 0 0 -800 0 -800 -170 0 -170 0 0 499 0 500 -26 20 c-26 20 -38 21
-341 21 l-314 0 -24 -25 -25 -24 0 -496 0 -495 -170 0 -170 0 0 198 c0 108 -5
516 -10 905 l-10 708 107 142 c322 429 505 667 511 667 4 0 153 -221 332 -491z
m2370 -929 l0 -400 -125 0 -125 0 0 255 0 256 -25 24 -24 25 -566 0 -566 0
-24 -25 -25 -24 0 -255 c0 -255 0 -255 -22 -267 -48 -25 -47 -24 -48 -416 l0
-373 -90 0 -90 0 0 800 0 800 865 0 865 0 0 -400z m-410 -200 l0 -200 -455 0
-455 0 0 200 0 200 455 0 455 0 0 -200z m-1980 -560 l0 -440 -205 0 -205 0 0
440 0 440 205 0 205 0 0 -440z m3080 -280 l0 -480 -1040 0 -1040 0 0 480 0
480 1040 0 1040 0 0 -480z m-880 -1000 l0 -360 -160 0 -160 0 0 360 0 360 160
0 160 0 0 -360z"/>
<path d="M3280 2067 c-49 -16 -133 -102 -148 -153 -28 -94 -8 -169 63 -239
102 -103 243 -101 338 5 90 100 90 220 0 320 -65 72 -158 97 -253 67z m135
-172 c50 -49 15 -135 -55 -135 -41 0 -80 39 -80 80 0 41 39 80 80 80 19 0 40
-9 55 -25z"/>
<path d="M3987 1942 c-34 -32 -168 -156 -297 -276 -292 -271 -290 -269 -290
-307 0 -40 39 -79 80 -79 26 0 54 21 168 127 75 70 207 192 292 271 213 198
220 206 220 242 0 41 -39 80 -80 80 -25 0 -45 -13 -93 -58z"/>
<path d="M4160 1747 c-49 -16 -133 -102 -148 -153 -28 -94 -8 -169 63 -239
102 -103 243 -101 338 5 90 100 90 220 0 320 -65 72 -158 97 -253 67z m135
-172 c50 -49 15 -135 -55 -135 -41 0 -80 39 -80 80 0 41 39 80 80 80 19 0 40
-9 55 -25z"/>
</g>
</svg>
